<mxfile host="app.diagrams.net" modified="2021-01-12T05:46:41.708Z" agent="5.0 (Windows NT 10.0; Win64; x64) AppleWebKit/537.36 (KHTML, like Gecko) Chrome/87.0.4280.88 Safari/537.36" etag="DxzJFQshUs1gDMWjiaWK" version="14.1.9" type="github">
  <diagram id="05P3EtJSHdNtM1MA3jFJ" name="Page-1">
    <mxGraphModel dx="716" dy="378" grid="1" gridSize="10" guides="1" tooltips="1" connect="1" arrows="1" fold="1" page="1" pageScale="1" pageWidth="850" pageHeight="1100" math="0" shadow="0">
      <root>
        <mxCell id="0" />
        <mxCell id="1" parent="0" />
        <mxCell id="sACkI0Q_xZ0Zvb8qSm-h-140" value="" style="rounded=0;whiteSpace=wrap;html=1;" parent="1" vertex="1">
          <mxGeometry x="550" y="200" width="460" height="320" as="geometry" />
        </mxCell>
        <mxCell id="sACkI0Q_xZ0Zvb8qSm-h-135" style="edgeStyle=orthogonalEdgeStyle;rounded=0;orthogonalLoop=1;jettySize=auto;html=1;exitX=1;exitY=0.25;exitDx=0;exitDy=0;entryX=0.25;entryY=0;entryDx=0;entryDy=0;strokeColor=#4C0099;" parent="1" source="sACkI0Q_xZ0Zvb8qSm-h-53" target="sACkI0Q_xZ0Zvb8qSm-h-102" edge="1">
          <mxGeometry relative="1" as="geometry" />
        </mxCell>
        <mxCell id="0V6rK0j0UweFFBn-_U-e-11" value="Th&lt;sub&gt;TS&lt;/sub&gt;&lt;sup&gt;L&lt;/sup&gt;" style="edgeLabel;html=1;align=center;verticalAlign=middle;resizable=0;points=[];" parent="sACkI0Q_xZ0Zvb8qSm-h-135" vertex="1" connectable="0">
          <mxGeometry x="0.0411" relative="1" as="geometry">
            <mxPoint as="offset" />
          </mxGeometry>
        </mxCell>
        <mxCell id="sACkI0Q_xZ0Zvb8qSm-h-53" value="Thermal Storage&lt;br style=&quot;font-size: 12px;&quot;&gt;SoC&lt;sub style=&quot;font-size: 12px;&quot;&gt;TS&lt;/sub&gt;(t)" style="rounded=0;whiteSpace=wrap;html=1;fontSize=12;" parent="1" vertex="1">
          <mxGeometry x="750.62" y="410" width="58.38" height="50" as="geometry" />
        </mxCell>
        <mxCell id="sACkI0Q_xZ0Zvb8qSm-h-136" style="edgeStyle=orthogonalEdgeStyle;rounded=0;orthogonalLoop=1;jettySize=auto;html=1;exitX=1;exitY=0.25;exitDx=0;exitDy=0;entryX=0;entryY=0.5;entryDx=0;entryDy=0;strokeColor=#66FFFF;" parent="1" source="sACkI0Q_xZ0Zvb8qSm-h-97" target="sACkI0Q_xZ0Zvb8qSm-h-107" edge="1">
          <mxGeometry relative="1" as="geometry">
            <Array as="points">
              <mxPoint x="525" y="271" />
            </Array>
          </mxGeometry>
        </mxCell>
        <mxCell id="0V6rK0j0UweFFBn-_U-e-13" value="G&lt;sub&gt;B&lt;/sub&gt;" style="edgeLabel;html=1;align=center;verticalAlign=middle;resizable=0;points=[];" parent="sACkI0Q_xZ0Zvb8qSm-h-136" vertex="1" connectable="0">
          <mxGeometry x="-0.013" y="-1" relative="1" as="geometry">
            <mxPoint as="offset" />
          </mxGeometry>
        </mxCell>
        <mxCell id="sACkI0Q_xZ0Zvb8qSm-h-97" value="GRID" style="rounded=0;whiteSpace=wrap;html=1;fontSize=12;" parent="1" vertex="1">
          <mxGeometry x="488" y="233" width="37" height="114" as="geometry" />
        </mxCell>
        <mxCell id="sACkI0Q_xZ0Zvb8qSm-h-127" style="edgeStyle=orthogonalEdgeStyle;rounded=0;orthogonalLoop=1;jettySize=auto;html=1;exitX=1;exitY=0.5;exitDx=0;exitDy=0;entryX=0;entryY=0.5;entryDx=0;entryDy=0;strokeColor=#97D077;" parent="1" source="sACkI0Q_xZ0Zvb8qSm-h-98" target="sACkI0Q_xZ0Zvb8qSm-h-99" edge="1">
          <mxGeometry relative="1" as="geometry">
            <Array as="points">
              <mxPoint x="710" y="290" />
              <mxPoint x="710" y="273" />
            </Array>
          </mxGeometry>
        </mxCell>
        <mxCell id="0V6rK0j0UweFFBn-_U-e-8" value="P&lt;sub&gt;ES&lt;/sub&gt;&lt;sup&gt;L&lt;/sup&gt;" style="edgeLabel;html=1;align=center;verticalAlign=middle;resizable=0;points=[];" parent="sACkI0Q_xZ0Zvb8qSm-h-127" vertex="1" connectable="0">
          <mxGeometry x="-0.0099" y="1" relative="1" as="geometry">
            <mxPoint as="offset" />
          </mxGeometry>
        </mxCell>
        <mxCell id="sACkI0Q_xZ0Zvb8qSm-h-98" value="Electrical Storage&lt;br&gt;SoC&lt;sub&gt;ES&lt;/sub&gt;(t)" style="rounded=0;whiteSpace=wrap;html=1;" parent="1" vertex="1">
          <mxGeometry x="641.6899999999999" y="265" width="58.38" height="50" as="geometry" />
        </mxCell>
        <mxCell id="sACkI0Q_xZ0Zvb8qSm-h-99" value="Electrical &lt;br&gt;Load&lt;br&gt;EL(t)" style="shape=trapezoid;perimeter=trapezoidPerimeter;whiteSpace=wrap;html=1;fixedSize=1;fontSize=15;" parent="1" vertex="1">
          <mxGeometry x="747" y="230" width="210" height="85" as="geometry" />
        </mxCell>
        <mxCell id="sACkI0Q_xZ0Zvb8qSm-h-130" value="EC&lt;sub&gt;L&lt;/sub&gt;" style="edgeStyle=orthogonalEdgeStyle;rounded=0;orthogonalLoop=1;jettySize=auto;html=1;exitX=0.5;exitY=1;exitDx=0;exitDy=0;entryX=0.5;entryY=0;entryDx=0;entryDy=0;strokeColor=#4C0099;" parent="1" source="sACkI0Q_xZ0Zvb8qSm-h-100" target="sACkI0Q_xZ0Zvb8qSm-h-103" edge="1">
          <mxGeometry relative="1" as="geometry" />
        </mxCell>
        <mxCell id="sACkI0Q_xZ0Zvb8qSm-h-100" value="Electric&lt;br&gt;Chiller" style="whiteSpace=wrap;html=1;aspect=fixed;fontSize=14;" parent="1" vertex="1">
          <mxGeometry x="885" y="260" width="50" height="50" as="geometry" />
        </mxCell>
        <mxCell id="sACkI0Q_xZ0Zvb8qSm-h-131" value="EH&lt;sub&gt;L&lt;/sub&gt;" style="edgeStyle=orthogonalEdgeStyle;rounded=0;orthogonalLoop=1;jettySize=auto;html=1;exitX=0.75;exitY=1;exitDx=0;exitDy=0;strokeColor=#FF3333;" parent="1" source="sACkI0Q_xZ0Zvb8qSm-h-101" target="sACkI0Q_xZ0Zvb8qSm-h-102" edge="1">
          <mxGeometry relative="1" as="geometry" />
        </mxCell>
        <mxCell id="sACkI0Q_xZ0Zvb8qSm-h-134" style="edgeStyle=orthogonalEdgeStyle;rounded=0;orthogonalLoop=1;jettySize=auto;html=1;exitX=0.25;exitY=1;exitDx=0;exitDy=0;strokeColor=#FF0000;" parent="1" source="sACkI0Q_xZ0Zvb8qSm-h-101" target="sACkI0Q_xZ0Zvb8qSm-h-53" edge="1">
          <mxGeometry relative="1" as="geometry" />
        </mxCell>
        <mxCell id="0V6rK0j0UweFFBn-_U-e-12" value="EH&lt;sub&gt;TS&lt;/sub&gt;" style="edgeLabel;html=1;align=center;verticalAlign=middle;resizable=0;points=[];" parent="sACkI0Q_xZ0Zvb8qSm-h-134" vertex="1" connectable="0">
          <mxGeometry x="-0.114" y="-1" relative="1" as="geometry">
            <mxPoint as="offset" />
          </mxGeometry>
        </mxCell>
        <mxCell id="sACkI0Q_xZ0Zvb8qSm-h-101" value="Electric&lt;br&gt;Heater" style="whiteSpace=wrap;html=1;aspect=fixed;fontSize=14;" parent="1" vertex="1">
          <mxGeometry x="767" y="260" width="50" height="50" as="geometry" />
        </mxCell>
        <mxCell id="sACkI0Q_xZ0Zvb8qSm-h-102" value="Heating&lt;br&gt;Load H&lt;sub&gt;L&lt;/sub&gt;(t)" style="shape=trapezoid;perimeter=trapezoidPerimeter;whiteSpace=wrap;html=1;fixedSize=1;fontSize=15;" parent="1" vertex="1">
          <mxGeometry x="809" y="440" width="120" height="60" as="geometry" />
        </mxCell>
        <mxCell id="sACkI0Q_xZ0Zvb8qSm-h-103" value="Cooling&lt;br&gt;Load C&lt;sub&gt;L&lt;/sub&gt;(t)" style="shape=trapezoid;perimeter=trapezoidPerimeter;whiteSpace=wrap;html=1;fixedSize=1;fontSize=15;" parent="1" vertex="1">
          <mxGeometry x="878.5" y="360" width="120" height="60" as="geometry" />
        </mxCell>
        <mxCell id="sACkI0Q_xZ0Zvb8qSm-h-121" style="edgeStyle=orthogonalEdgeStyle;rounded=0;orthogonalLoop=1;jettySize=auto;html=1;exitX=0;exitY=0.5;exitDx=0;exitDy=0;entryX=0.5;entryY=1;entryDx=0;entryDy=0;strokeColor=#FF9933;" parent="1" source="sACkI0Q_xZ0Zvb8qSm-h-104" target="sACkI0Q_xZ0Zvb8qSm-h-108" edge="1">
          <mxGeometry relative="1" as="geometry" />
        </mxCell>
        <mxCell id="0V6rK0j0UweFFBn-_U-e-1" value="EE&lt;sub&gt;PVT&lt;/sub&gt;&lt;sup&gt;G&lt;/sup&gt;" style="edgeLabel;html=1;align=center;verticalAlign=middle;resizable=0;points=[];" parent="sACkI0Q_xZ0Zvb8qSm-h-121" vertex="1" connectable="0">
          <mxGeometry x="-0.1439" y="-1" relative="1" as="geometry">
            <mxPoint as="offset" />
          </mxGeometry>
        </mxCell>
        <mxCell id="sACkI0Q_xZ0Zvb8qSm-h-128" style="edgeStyle=orthogonalEdgeStyle;rounded=0;orthogonalLoop=1;jettySize=auto;html=1;exitX=0.5;exitY=0;exitDx=0;exitDy=0;strokeColor=#FF9933;" parent="1" source="sACkI0Q_xZ0Zvb8qSm-h-104" target="sACkI0Q_xZ0Zvb8qSm-h-98" edge="1">
          <mxGeometry relative="1" as="geometry">
            <Array as="points">
              <mxPoint x="671" y="330" />
              <mxPoint x="671" y="330" />
            </Array>
          </mxGeometry>
        </mxCell>
        <mxCell id="0V6rK0j0UweFFBn-_U-e-2" value="EE&lt;sub&gt;PVT&lt;/sub&gt;&lt;sup&gt;S&lt;/sup&gt;" style="edgeLabel;html=1;align=center;verticalAlign=middle;resizable=0;points=[];" parent="sACkI0Q_xZ0Zvb8qSm-h-128" vertex="1" connectable="0">
          <mxGeometry x="-0.1742" relative="1" as="geometry">
            <mxPoint as="offset" />
          </mxGeometry>
        </mxCell>
        <mxCell id="sACkI0Q_xZ0Zvb8qSm-h-129" style="edgeStyle=orthogonalEdgeStyle;rounded=0;orthogonalLoop=1;jettySize=auto;html=1;exitX=1;exitY=0.5;exitDx=0;exitDy=0;strokeColor=#FF9933;" parent="1" source="sACkI0Q_xZ0Zvb8qSm-h-104" edge="1">
          <mxGeometry relative="1" as="geometry">
            <mxPoint x="752" y="293" as="targetPoint" />
            <Array as="points">
              <mxPoint x="730" y="365" />
              <mxPoint x="730" y="293" />
            </Array>
          </mxGeometry>
        </mxCell>
        <mxCell id="0V6rK0j0UweFFBn-_U-e-3" value="EE&lt;sub&gt;PVT&lt;/sub&gt;&lt;sup&gt;L&lt;/sup&gt;" style="edgeLabel;html=1;align=center;verticalAlign=middle;resizable=0;points=[];" parent="sACkI0Q_xZ0Zvb8qSm-h-129" vertex="1" connectable="0">
          <mxGeometry x="-0.3171" y="-1" relative="1" as="geometry">
            <mxPoint y="-13.14" as="offset" />
          </mxGeometry>
        </mxCell>
        <mxCell id="sACkI0Q_xZ0Zvb8qSm-h-132" style="edgeStyle=orthogonalEdgeStyle;rounded=0;orthogonalLoop=1;jettySize=auto;html=1;exitX=0.5;exitY=1;exitDx=0;exitDy=0;entryX=0;entryY=0.75;entryDx=0;entryDy=0;strokeColor=#FF3399;" parent="1" source="sACkI0Q_xZ0Zvb8qSm-h-104" target="sACkI0Q_xZ0Zvb8qSm-h-102" edge="1">
          <mxGeometry relative="1" as="geometry">
            <Array as="points">
              <mxPoint x="671" y="484" />
              <mxPoint x="815" y="484" />
            </Array>
          </mxGeometry>
        </mxCell>
        <mxCell id="0V6rK0j0UweFFBn-_U-e-10" value="Th&lt;sub&gt;L&lt;/sub&gt;" style="edgeLabel;html=1;align=center;verticalAlign=middle;resizable=0;points=[];" parent="sACkI0Q_xZ0Zvb8qSm-h-132" vertex="1" connectable="0">
          <mxGeometry x="0.241" y="-1" relative="1" as="geometry">
            <mxPoint as="offset" />
          </mxGeometry>
        </mxCell>
        <mxCell id="sACkI0Q_xZ0Zvb8qSm-h-133" style="edgeStyle=orthogonalEdgeStyle;rounded=0;orthogonalLoop=1;jettySize=auto;html=1;exitX=0.75;exitY=1;exitDx=0;exitDy=0;entryX=0;entryY=0.5;entryDx=0;entryDy=0;strokeColor=#FF3399;" parent="1" source="sACkI0Q_xZ0Zvb8qSm-h-104" target="sACkI0Q_xZ0Zvb8qSm-h-53" edge="1">
          <mxGeometry relative="1" as="geometry">
            <Array as="points">
              <mxPoint x="696" y="435" />
            </Array>
          </mxGeometry>
        </mxCell>
        <mxCell id="0V6rK0j0UweFFBn-_U-e-9" value="Th&lt;sub&gt;TS&lt;/sub&gt;" style="edgeLabel;html=1;align=center;verticalAlign=middle;resizable=0;points=[];" parent="sACkI0Q_xZ0Zvb8qSm-h-133" vertex="1" connectable="0">
          <mxGeometry x="0.0786" y="-1" relative="1" as="geometry">
            <mxPoint as="offset" />
          </mxGeometry>
        </mxCell>
        <mxCell id="sACkI0Q_xZ0Zvb8qSm-h-104" value="PVT" style="shape=process;whiteSpace=wrap;html=1;backgroundOutline=1;fontSize=15;" parent="1" vertex="1">
          <mxGeometry x="621.3800000000001" y="340" width="99" height="50.25" as="geometry" />
        </mxCell>
        <mxCell id="sACkI0Q_xZ0Zvb8qSm-h-123" style="edgeStyle=orthogonalEdgeStyle;rounded=0;orthogonalLoop=1;jettySize=auto;html=1;exitX=1;exitY=0.5;exitDx=0;exitDy=0;entryX=0;entryY=0;entryDx=0;entryDy=0;" parent="1" source="sACkI0Q_xZ0Zvb8qSm-h-105" target="sACkI0Q_xZ0Zvb8qSm-h-99" edge="1">
          <mxGeometry relative="1" as="geometry" />
        </mxCell>
        <mxCell id="0V6rK0j0UweFFBn-_U-e-6" value="P&lt;sub&gt;DG&lt;/sub&gt;" style="edgeLabel;html=1;align=center;verticalAlign=middle;resizable=0;points=[];" parent="sACkI0Q_xZ0Zvb8qSm-h-123" vertex="1" connectable="0">
          <mxGeometry x="0.152" y="-1" relative="1" as="geometry">
            <mxPoint as="offset" />
          </mxGeometry>
        </mxCell>
        <mxCell id="sACkI0Q_xZ0Zvb8qSm-h-105" value="DG" style="rounded=0;whiteSpace=wrap;html=1;fontSize=14;" parent="1" vertex="1">
          <mxGeometry x="648.3800000000001" y="210" width="45" height="36" as="geometry" />
        </mxCell>
        <mxCell id="sACkI0Q_xZ0Zvb8qSm-h-116" style="edgeStyle=orthogonalEdgeStyle;rounded=0;orthogonalLoop=1;jettySize=auto;html=1;exitX=0.5;exitY=0;exitDx=0;exitDy=0;entryX=0;entryY=0.25;entryDx=0;entryDy=0;strokeColor=#3333FF;" parent="1" source="sACkI0Q_xZ0Zvb8qSm-h-107" target="sACkI0Q_xZ0Zvb8qSm-h-99" edge="1">
          <mxGeometry relative="1" as="geometry">
            <Array as="points">
              <mxPoint x="568" y="254" />
            </Array>
          </mxGeometry>
        </mxCell>
        <mxCell id="0V6rK0j0UweFFBn-_U-e-5" value="G&lt;sub&gt;B&lt;/sub&gt;&lt;sup&gt;L&lt;/sup&gt;" style="edgeLabel;html=1;align=center;verticalAlign=middle;resizable=0;points=[];" parent="sACkI0Q_xZ0Zvb8qSm-h-116" vertex="1" connectable="0">
          <mxGeometry x="0.0544" y="-1" relative="1" as="geometry">
            <mxPoint as="offset" />
          </mxGeometry>
        </mxCell>
        <mxCell id="sACkI0Q_xZ0Zvb8qSm-h-119" style="edgeStyle=orthogonalEdgeStyle;rounded=0;orthogonalLoop=1;jettySize=auto;html=1;exitX=1;exitY=0.5;exitDx=0;exitDy=0;entryX=0.01;entryY=0.309;entryDx=0;entryDy=0;strokeColor=#3333FF;entryPerimeter=0;" parent="1" source="sACkI0Q_xZ0Zvb8qSm-h-107" target="sACkI0Q_xZ0Zvb8qSm-h-98" edge="1">
          <mxGeometry relative="1" as="geometry">
            <mxPoint x="555.5" y="329" as="targetPoint" />
          </mxGeometry>
        </mxCell>
        <mxCell id="0V6rK0j0UweFFBn-_U-e-4" value="G&lt;sub&gt;B&lt;/sub&gt;&lt;sup&gt;S&lt;/sup&gt;" style="edgeLabel;html=1;align=center;verticalAlign=middle;resizable=0;points=[];" parent="sACkI0Q_xZ0Zvb8qSm-h-119" vertex="1" connectable="0">
          <mxGeometry x="-0.3244" relative="1" as="geometry">
            <mxPoint as="offset" />
          </mxGeometry>
        </mxCell>
        <mxCell id="sACkI0Q_xZ0Zvb8qSm-h-107" value="" style="ellipse;whiteSpace=wrap;html=1;aspect=fixed;" parent="1" vertex="1">
          <mxGeometry x="555.5" y="258.5" width="25" height="25" as="geometry" />
        </mxCell>
        <mxCell id="sACkI0Q_xZ0Zvb8qSm-h-137" style="edgeStyle=orthogonalEdgeStyle;rounded=0;orthogonalLoop=1;jettySize=auto;html=1;exitX=0;exitY=0.5;exitDx=0;exitDy=0;entryX=1;entryY=0.75;entryDx=0;entryDy=0;strokeColor=#660000;" parent="1" source="sACkI0Q_xZ0Zvb8qSm-h-108" target="sACkI0Q_xZ0Zvb8qSm-h-97" edge="1">
          <mxGeometry relative="1" as="geometry">
            <Array as="points">
              <mxPoint x="556" y="318" />
              <mxPoint x="525" y="318" />
            </Array>
          </mxGeometry>
        </mxCell>
        <mxCell id="0V6rK0j0UweFFBn-_U-e-14" value="G&lt;sub&gt;S&lt;/sub&gt;" style="edgeLabel;html=1;align=center;verticalAlign=middle;resizable=0;points=[];" parent="sACkI0Q_xZ0Zvb8qSm-h-137" vertex="1" connectable="0">
          <mxGeometry x="-0.393" y="-1" relative="1" as="geometry">
            <mxPoint as="offset" />
          </mxGeometry>
        </mxCell>
        <mxCell id="sACkI0Q_xZ0Zvb8qSm-h-108" value="" style="ellipse;whiteSpace=wrap;html=1;aspect=fixed;" parent="1" vertex="1">
          <mxGeometry x="555.5" y="301" width="25" height="25" as="geometry" />
        </mxCell>
        <mxCell id="sACkI0Q_xZ0Zvb8qSm-h-120" style="edgeStyle=orthogonalEdgeStyle;rounded=0;orthogonalLoop=1;jettySize=auto;html=1;exitX=0;exitY=0.75;exitDx=0;exitDy=0;entryX=1;entryY=0.5;entryDx=0;entryDy=0;strokeColor=#97D077;" parent="1" source="sACkI0Q_xZ0Zvb8qSm-h-98" target="sACkI0Q_xZ0Zvb8qSm-h-108" edge="1">
          <mxGeometry relative="1" as="geometry">
            <mxPoint x="512.5" y="329" as="sourcePoint" />
          </mxGeometry>
        </mxCell>
        <mxCell id="0V6rK0j0UweFFBn-_U-e-7" value="P&lt;sub&gt;ES&lt;/sub&gt;&lt;sup&gt;G&lt;/sup&gt;" style="edgeLabel;html=1;align=center;verticalAlign=middle;resizable=0;points=[];" parent="sACkI0Q_xZ0Zvb8qSm-h-120" vertex="1" connectable="0">
          <mxGeometry x="-0.2909" y="-1" relative="1" as="geometry">
            <mxPoint as="offset" />
          </mxGeometry>
        </mxCell>
        <mxCell id="sACkI0Q_xZ0Zvb8qSm-h-141" value="PROSUMER" style="text;html=1;align=center;verticalAlign=middle;resizable=0;points=[];autosize=1;fontStyle=1" parent="1" vertex="1">
          <mxGeometry x="550" y="500" width="90" height="20" as="geometry" />
        </mxCell>
      </root>
    </mxGraphModel>
  </diagram>
</mxfile>
